<svg width="24" height="24" viewBox="0 0 24 24" fill="none" xmlns="http://www.w3.org/2000/svg">
<path d="M21.2863 18.2912C20.6691 17.741 20.1288 17.1103 19.6799 16.416C19.1898 15.4576 18.896 14.411 18.8159 13.3376V10.176C18.8201 8.48996 18.2085 6.86043 17.096 5.59355C15.9835 4.32667 14.4467 3.50964 12.7743 3.29597V2.47037C12.7743 2.24377 12.6843 2.02645 12.524 1.86621C12.3638 1.70598 12.1465 1.61597 11.9199 1.61597C11.6933 1.61597 11.476 1.70598 11.3157 1.86621C11.1555 2.02645 11.0655 2.24377 11.0655 2.47037V3.30877C9.40805 3.53784 7.88979 4.35981 6.7919 5.62244C5.69402 6.88506 5.09091 8.50278 5.09428 10.176V13.3376C5.01413 14.411 4.72038 15.4576 4.23029 16.416C3.78925 17.1087 3.25761 17.7393 2.64948 18.2912C2.58122 18.3511 2.5265 18.425 2.48898 18.5077C2.45146 18.5905 2.432 18.6803 2.43188 18.7712V19.6416C2.43188 19.8113 2.49931 19.9741 2.61934 20.0941C2.73936 20.2141 2.90215 20.2816 3.07188 20.2816H20.8639C21.0336 20.2816 21.1964 20.2141 21.3164 20.0941C21.4365 19.9741 21.5039 19.8113 21.5039 19.6416V18.7712C21.5038 18.6803 21.4843 18.5905 21.4468 18.5077C21.4093 18.425 21.3546 18.3511 21.2863 18.2912ZM3.76309 19.0016C4.35855 18.4263 4.88283 17.7817 5.32469 17.0816C5.94204 15.9241 6.30224 14.647 6.38069 13.3376V10.176C6.3553 9.42591 6.48112 8.67842 6.75063 7.97799C7.02015 7.27757 7.42786 6.63855 7.94948 6.09898C8.47111 5.5594 9.09598 5.13031 9.78688 4.83726C10.4778 4.54421 11.2206 4.39319 11.9711 4.39319C12.7216 4.39319 13.4644 4.54421 14.1553 4.83726C14.8462 5.13031 15.4711 5.5594 15.9927 6.09898C16.5143 6.63855 16.922 7.27757 17.1915 7.97799C17.4611 8.67842 17.5869 9.42591 17.5615 10.176V13.3376C17.6399 14.647 18.0001 15.9241 18.6175 17.0816C19.0593 17.7817 19.5836 18.4263 20.1791 19.0016H3.76309Z" fill="#0A288F"/>
<path d="M11.9999 22.4192C12.403 22.4099 12.7899 22.2583 13.0921 21.9913C13.3943 21.7242 13.5923 21.3589 13.6511 20.96H10.2847C10.3451 21.3698 10.5524 21.7436 10.8679 22.0121C11.1834 22.2805 11.5857 22.4251 11.9999 22.4192Z" fill="#0A288F"/>
</svg>
