<svg width="20" height="20" viewBox="0 0 20 20" fill="none" xmlns="http://www.w3.org/2000/svg">
<g clip-path="url(#clip0_1388_2511)">
<path d="M14.66 15.6601C13.352 16.9695 11.6305 17.7849 9.78879 17.9674C7.94705 18.1499 6.09901 17.6881 4.55952 16.6608C3.02004 15.6336 1.88436 14.1043 1.34597 12.3336C0.807587 10.5628 0.899804 8.66021 1.60691 6.94985C2.31402 5.2395 3.59227 3.82722 5.22389 2.95363C6.85551 2.08005 8.73954 1.7992 10.555 2.15894C12.3705 2.51869 14.005 3.49676 15.1802 4.92653C16.3554 6.3563 16.9985 8.14931 17 10.0001H15C15.0012 8.61187 14.521 7.2662 13.6413 6.19236C12.7615 5.11852 11.5366 4.38297 10.1753 4.11103C8.81404 3.8391 7.40056 4.04761 6.17577 4.70105C4.95098 5.35448 3.99066 6.41239 3.45845 7.69452C2.92625 8.97665 2.85509 10.4037 3.25711 11.7324C3.65913 13.0611 4.50944 14.2093 5.66315 14.9813C6.81687 15.7533 8.20259 16.1014 9.58419 15.9663C10.9658 15.8311 12.2578 15.2211 13.24 14.2401L14.66 15.6601ZM12 10.0001H20L16 14.0001L12 10.0001Z" fill="#5469B1"/>
</g>
<defs>
<clipPath id="clip0_1388_2511">
<rect width="20" height="20" fill="white"/>
</clipPath>
</defs>
</svg>
