<svg width="24" height="24" viewBox="0 0 24 24" fill="none" xmlns="http://www.w3.org/2000/svg">
<g clip-path="url(#clip0_1323_1955)">
<path fill-rule="evenodd" clip-rule="evenodd" d="M2.4 0C1.76348 0 1.15303 0.252856 0.702944 0.702944C0.252856 1.15303 0 1.76348 0 2.4L0 21.6C0 22.2365 0.252856 22.847 0.702944 23.2971C1.15303 23.7471 1.76348 24 2.4 24H21.6C22.2365 24 22.847 23.7471 23.2971 23.2971C23.7471 22.847 24 22.2365 24 21.6V2.4C24 1.76348 23.7471 1.15303 23.2971 0.702944C22.847 0.252856 22.2365 0 21.6 0L2.4 0ZM10.4 14.4C8.91479 14.4 7.49041 14.99 6.4402 16.0402C5.39 17.0904 4.8 18.5148 4.8 20V21.6C4.8 21.8122 4.88429 22.0157 5.03431 22.1657C5.18434 22.3157 5.38783 22.4 5.6 22.4H18.4C18.6122 22.4 18.8157 22.3157 18.9657 22.1657C19.1157 22.0157 19.2 21.8122 19.2 21.6V20C19.2 18.5148 18.61 17.0904 17.5598 16.0402C16.5096 14.99 15.0852 14.4 13.6 14.4H10.4ZM8 8.8C8 7.73913 8.42143 6.72172 9.17157 5.97157C9.92172 5.22143 10.9391 4.8 12 4.8C13.0609 4.8 14.0783 5.22143 14.8284 5.97157C15.5786 6.72172 16 7.73913 16 8.8C16 9.86087 15.5786 10.8783 14.8284 11.6284C14.0783 12.3786 13.0609 12.8 12 12.8C10.9391 12.8 9.92172 12.3786 9.17157 11.6284C8.42143 10.8783 8 9.86087 8 8.8Z" fill="#FFA824"/>
</g>
<defs>
<clipPath id="clip0_1323_1955">
<rect width="24" height="24" fill="white"/>
</clipPath>
</defs>
</svg>
