<svg width="24" height="24" viewBox="0 0 24 24" fill="none" xmlns="http://www.w3.org/2000/svg">
<g clip-path="url(#clip0_1323_1960)">
<path d="M13.6667 3C14.0203 3 14.3594 3.14048 14.6095 3.39052C14.8595 3.64057 15 3.97971 15 4.33333V7H21.6667C22.0203 7 22.3594 7.14048 22.6095 7.39052C22.8595 7.64057 23 7.97971 23 8.33333V15H25.6667C26.0203 15 26.3594 15.1405 26.6095 15.3905C26.8595 15.6406 27 15.9797 27 16.3333V25.6667C27 26.0203 26.8595 26.3594 26.6095 26.6095C26.3594 26.8595 26.0203 27 25.6667 27H16.3333C15.9797 27 15.6406 26.8595 15.3905 26.6095C15.1405 26.3594 15 26.0203 15 25.6667V23H8.33333C7.97971 23 7.64057 22.8595 7.39052 22.6095C7.14048 22.3594 7 22.0203 7 21.6667V15H4.33333C3.97971 15 3.64057 14.8595 3.39052 14.6095C3.14048 14.3594 3 14.0203 3 13.6667V4.33333C3 3.97971 3.14048 3.64057 3.39052 3.39052C3.64057 3.14048 3.97971 3 4.33333 3H13.6667ZM20.3333 9.66667H15V13.6667C15 14.0203 14.8595 14.3594 14.6095 14.6095C14.3594 14.8595 14.0203 15 13.6667 15H9.66667V20.3333H15V16.3333C15 15.9797 15.1405 15.6406 15.3905 15.3905C15.6406 15.1405 15.9797 15 16.3333 15H20.3333V9.66667Z" fill="#B6BFDD"/>
</g>
<defs>
<clipPath id="clip0_1323_1960">
<rect width="24" height="24" fill="white"/>
</clipPath>
</defs>
</svg>
