<svg width="24" height="18" viewBox="0 0 24 18" fill="none" xmlns="http://www.w3.org/2000/svg">
<path d="M2.25 0C1.65326 0 1.08097 0.237053 0.65901 0.659009C0.237053 1.08097 0 1.65326 0 2.25V5.25C0 5.84674 0.237053 6.41903 0.65901 6.84099C1.08097 7.26295 1.65326 7.5 2.25 7.5H5.25C5.84674 7.5 6.41903 7.26295 6.84099 6.84099C7.26295 6.41903 7.5 5.84674 7.5 5.25V2.25C7.5 1.65326 7.26295 1.08097 6.84099 0.659009C6.41903 0.237053 5.84674 0 5.25 0H2.25ZM1.5 2.25C1.5 2.05109 1.57902 1.86032 1.71967 1.71967C1.86032 1.57902 2.05109 1.5 2.25 1.5H5.25C5.44891 1.5 5.63968 1.57902 5.78033 1.71967C5.92098 1.86032 6 2.05109 6 2.25V5.25C6 5.44891 5.92098 5.63968 5.78033 5.78033C5.63968 5.92098 5.44891 6 5.25 6H2.25C2.05109 6 1.86032 5.92098 1.71967 5.78033C1.57902 5.63968 1.5 5.44891 1.5 5.25V2.25ZM11.25 1.5C11.0511 1.5 10.8603 1.57902 10.7197 1.71967C10.579 1.86032 10.5 2.05109 10.5 2.25C10.5 2.44891 10.579 2.63968 10.7197 2.78033C10.8603 2.92098 11.0511 3 11.25 3H23.25C23.4489 3 23.6397 2.92098 23.7803 2.78033C23.921 2.63968 24 2.44891 24 2.25C24 2.05109 23.921 1.86032 23.7803 1.71967C23.6397 1.57902 23.4489 1.5 23.25 1.5H11.25ZM11.25 4.5C11.0511 4.5 10.8603 4.57902 10.7197 4.71967C10.579 4.86032 10.5 5.05109 10.5 5.25C10.5 5.44891 10.579 5.63968 10.7197 5.78033C10.8603 5.92098 11.0511 6 11.25 6H20.25C20.4489 6 20.6397 5.92098 20.7803 5.78033C20.921 5.63968 21 5.44891 21 5.25C21 5.05109 20.921 4.86032 20.7803 4.71967C20.6397 4.57902 20.4489 4.5 20.25 4.5H11.25ZM2.25 10.5C1.65326 10.5 1.08097 10.7371 0.65901 11.159C0.237053 11.581 0 12.1533 0 12.75V15.75C0 16.3467 0.237053 16.919 0.65901 17.341C1.08097 17.7629 1.65326 18 2.25 18H5.25C5.84674 18 6.41903 17.7629 6.84099 17.341C7.26295 16.919 7.5 16.3467 7.5 15.75V12.75C7.5 12.1533 7.26295 11.581 6.84099 11.159C6.41903 10.7371 5.84674 10.5 5.25 10.5H2.25ZM1.5 12.75C1.5 12.5511 1.57902 12.3603 1.71967 12.2197C1.86032 12.079 2.05109 12 2.25 12H5.25C5.44891 12 5.63968 12.079 5.78033 12.2197C5.92098 12.3603 6 12.5511 6 12.75V15.75C6 15.9489 5.92098 16.1397 5.78033 16.2803C5.63968 16.421 5.44891 16.5 5.25 16.5H2.25C2.05109 16.5 1.86032 16.421 1.71967 16.2803C1.57902 16.1397 1.5 15.9489 1.5 15.75V12.75ZM11.25 12C11.0511 12 10.8603 12.079 10.7197 12.2197C10.579 12.3603 10.5 12.5511 10.5 12.75C10.5 12.9489 10.579 13.1397 10.7197 13.2803C10.8603 13.421 11.0511 13.5 11.25 13.5H23.25C23.4489 13.5 23.6397 13.421 23.7803 13.2803C23.921 13.1397 24 12.9489 24 12.75C24 12.5511 23.921 12.3603 23.7803 12.2197C23.6397 12.079 23.4489 12 23.25 12H11.25ZM11.25 15C11.0511 15 10.8603 15.079 10.7197 15.2197C10.579 15.3603 10.5 15.5511 10.5 15.75C10.5 15.9489 10.579 16.1397 10.7197 16.2803C10.8603 16.421 11.0511 16.5 11.25 16.5H20.25C20.4489 16.5 20.6397 16.421 20.7803 16.2803C20.921 16.1397 21 15.9489 21 15.75C21 15.5511 20.921 15.3603 20.7803 15.2197C20.6397 15.079 20.4489 15 20.25 15H11.25Z" fill="#08288D"/>
</svg>
