<svg width="32" height="32" viewBox="0 0 32 32" fill="none" xmlns="http://www.w3.org/2000/svg">
<g clip-path="url(#clip0_1343_2176)">
<path d="M16 0C24.8368 0 32 7.1632 32 16C32 24.8368 24.8368 32 16 32C7.1632 32 0 24.8368 0 16C0 7.1632 7.1632 0 16 0ZM16 2.232C12.3485 2.232 8.84655 3.68255 6.26455 6.26455C3.68255 8.84655 2.232 12.3485 2.232 16C2.232 19.6515 3.68255 23.1534 6.26455 25.7354C8.84655 28.3174 12.3485 29.768 16 29.768C19.6515 29.768 23.1534 28.3174 25.7354 25.7354C28.3174 23.1534 29.768 19.6515 29.768 16C29.768 12.3485 28.3174 8.84655 25.7354 6.26455C23.1534 3.68255 19.6515 2.232 16 2.232ZM15.768 11.536C16.384 11.536 16.8832 12.0368 16.8832 12.6528V24.7456C16.8723 25.0343 16.7499 25.3075 16.5418 25.5078C16.3337 25.7082 16.0561 25.8201 15.7672 25.8201C15.4783 25.8201 15.2007 25.7082 14.9926 25.5078C14.7845 25.3075 14.6621 25.0343 14.6512 24.7456V12.6512C14.6512 12.0352 15.1504 11.5344 15.768 11.5344V11.536ZM15.8128 7.072C16.2074 7.072 16.5859 7.22877 16.865 7.50783C17.144 7.78688 17.3008 8.16536 17.3008 8.56C17.3008 8.95464 17.144 9.33312 16.865 9.61217C16.5859 9.89123 16.2074 10.048 15.8128 10.048C15.4182 10.048 15.0397 9.89123 14.7606 9.61217C14.4816 9.33312 14.3248 8.95464 14.3248 8.56C14.3248 8.16536 14.4816 7.78688 14.7606 7.50783C15.0397 7.22877 15.4182 7.072 15.8128 7.072Z" fill="#0A288F"/>
</g>
<defs>
<clipPath id="clip0_1343_2176">
<rect width="32" height="32" fill="white"/>
</clipPath>
</defs>
</svg>
