<svg width="32" height="32" viewBox="0 0 32 32" fill="none" xmlns="http://www.w3.org/2000/svg">
<path d="M16.0002 1.54636C10.3165 1.46927 4.84007 5.12714 2.68417 10.3775C0.432331 15.5361 1.60236 21.9444 5.54139 25.9677C9.32989 30.0457 15.5719 31.5424 20.7995 29.6344C26.2173 27.7895 30.2171 22.4689 30.4345 16.7423C30.7992 11.1153 27.4886 5.50138 22.4196 3.05027C20.4347 2.05974 18.2182 1.54319 16.0002 1.54636ZM16.0002 3.10886C21.614 3.01122 26.9531 7.0438 28.4025 12.4671C29.9186 17.5751 27.8679 23.4891 23.4665 26.5144C18.8944 29.875 12.1143 29.6318 7.79672 25.9495C3.4465 22.4811 1.88933 16.0655 4.12128 10.9779C6.05578 6.27457 10.9117 3.04916 16.0002 3.10886ZM9.44357 10.9987V21.0003H22.5568V10.9987H9.44357V10.9987ZM12.3566 12.5613H19.6428C18.3522 13.3554 17.0615 15.0988 15.7711 15.289C14.633 14.3797 13.4948 13.4705 12.3566 12.5613H12.3566ZM20.9962 13.4812V19.4377H11.0042V13.4816C12.669 14.8121 14.3338 16.1427 15.9987 17.4732C17.6646 16.1426 19.3304 14.8118 20.9962 13.4812Z" fill="#0A288F"/>
</svg>
