<svg width="32" height="32" viewBox="0 0 32 32" fill="none" xmlns="http://www.w3.org/2000/svg">
<path d="M10 18.6665C10.7684 18.6663 11.5133 18.9317 12.1086 19.4176C12.7039 19.9036 13.113 20.5803 13.2667 21.3332H22.6667V7.99984H8C7.29276 7.99984 6.61448 8.28079 6.11438 8.78089C5.61428 9.28098 5.33333 9.95926 5.33333 10.6665V21.3332H6.73333C6.88702 20.5803 7.29612 19.9036 7.8914 19.4176C8.48668 18.9317 9.23156 18.6663 10 18.6665ZM10 25.3332C9.23156 25.3333 8.48668 25.068 7.8914 24.582C7.29612 24.0961 6.88702 23.4194 6.73333 22.6665H4V10.6665C4 9.60564 4.42143 8.58822 5.17157 7.83808C5.92172 7.08793 6.93913 6.6665 8 6.6665H22.6667C23.0203 6.6665 23.3594 6.80698 23.6095 7.05703C23.8595 7.30708 24 7.64622 24 7.99984V10.6665H28L32 15.9745V22.6665H29.2667C29.1137 23.42 28.7048 24.0975 28.1095 24.5841C27.5142 25.0707 26.7689 25.3365 26 25.3365C25.2311 25.3365 24.4858 25.0707 23.8905 24.5841C23.2952 24.0975 22.8863 23.42 22.7333 22.6665H13.2667C13.113 23.4194 12.7039 24.0961 12.1086 24.582C11.5133 25.068 10.7684 25.3333 10 25.3332ZM10 19.9998C9.46957 19.9998 8.96086 20.2106 8.58579 20.5856C8.21071 20.9607 8 21.4694 8 21.9998C8 22.5303 8.21071 23.039 8.58579 23.4141C8.96086 23.7891 9.46957 23.9998 10 23.9998C10.5304 23.9998 11.0391 23.7891 11.4142 23.4141C11.7893 23.039 12 22.5303 12 21.9998C12 21.4694 11.7893 20.9607 11.4142 20.5856C11.0391 20.2106 10.5304 19.9998 10 19.9998ZM26 18.6665C26.7684 18.6663 27.5133 18.9317 28.1086 19.4176C28.7039 19.9036 29.113 20.5803 29.2667 21.3332H30.6667V16.4212L30.3493 15.9998H24V19.3332C24.5765 18.8996 25.2786 18.6655 26 18.6665ZM26 19.9998C25.4696 19.9998 24.9609 20.2106 24.5858 20.5856C24.2107 20.9607 24 21.4694 24 21.9998C24 22.5303 24.2107 23.039 24.5858 23.4141C24.9609 23.7891 25.4696 23.9998 26 23.9998C26.5304 23.9998 27.0391 23.7891 27.4142 23.4141C27.7893 23.039 28 22.5303 28 21.9998C28 21.4694 27.7893 20.9607 27.4142 20.5856C27.0391 20.2106 26.5304 19.9998 26 19.9998ZM24 11.9998V14.6665H29.3453L27.3333 11.9998H24Z" fill="#0A288F"/>
</svg>
