<svg width="9" height="21" viewBox="0 0 9 21" fill="none" xmlns="http://www.w3.org/2000/svg">
<path d="M3.98238 20.3536C4.17765 20.5488 4.49423 20.5488 4.68949 20.3536L7.87147 17.1716C8.06673 16.9763 8.06673 16.6597 7.87147 16.4645C7.67621 16.2692 7.35963 16.2692 7.16436 16.4645L4.33594 19.2929L1.50751 16.4645C1.31225 16.2692 0.995666 16.2692 0.800404 16.4645C0.605141 16.6597 0.605141 16.9763 0.800404 17.1716L3.98238 20.3536ZM3.83594 0V1H4.83594V0L3.83594 0ZM3.83594 3L3.83594 5H4.83594V3H3.83594ZM3.83594 7V9H4.83594L4.83594 7H3.83594ZM3.83594 11V13H4.83594V11H3.83594ZM3.83594 15V17H4.83594V15H3.83594ZM3.83594 19V20H4.83594V19H3.83594Z" fill="#FF1F1F"/>
</svg>
