<svg width="35" height="24" viewBox="0 0 35 24" fill="none" xmlns="http://www.w3.org/2000/svg">
<g opacity="0.24">
<path d="M17.4643 11.5201C17.34 11.5201 17.2158 11.5011 17.1001 11.4605L0.39491 5.70013C0.142126 5.61347 -0.0121079 5.44285 0.000745523 5.2614C0.00931448 5.07995 0.184969 4.91746 0.446322 4.84163L17.1515 0.0426545C17.3529 -0.0142182 17.58 -0.0142182 17.7813 0.0426545L34.4865 4.84163C34.7479 4.91746 34.9192 5.07995 34.9321 5.2614C34.9449 5.44285 34.7907 5.61347 34.5379 5.70013L17.8327 11.4605C17.7171 11.4984 17.5928 11.5201 17.4643 11.5201ZM2.46003 5.31826L17.4643 10.491L32.4685 5.31826L17.4643 1.00678L2.46003 5.31826Z" fill="#5469B1"/>
<path d="M25.094 8.63993C24.9792 8.63993 24.8645 8.62243 24.7579 8.58993L9.50254 3.71508C9.14595 3.60259 9.01069 3.33509 9.19513 3.1176C9.37957 2.90011 9.82224 2.81761 10.1747 2.9301L25.4301 7.80246C25.7866 7.91746 25.9219 8.18495 25.7375 8.39995C25.6063 8.55494 25.3563 8.63993 25.094 8.63993Z" fill="#5469B1"/>
<path d="M17.4659 24.0002C17.333 24.0002 17.2002 23.978 17.0802 23.9308C16.8488 23.8419 16.7074 23.6808 16.7074 23.5085V11.2025C16.7074 11.0219 16.8574 10.8552 17.1016 10.7691L33.8104 4.86054C34.0461 4.7772 34.329 4.77997 34.5604 4.86886C34.7918 4.95776 34.9332 5.11888 34.9332 5.29111V17.5999C34.9332 17.7805 34.7832 17.9444 34.539 18.0305L17.8302 23.9391C17.7188 23.9808 17.5945 24.0002 17.4659 24.0002ZM18.2287 11.4914V22.6779L33.4205 17.3083V6.1217L18.2287 11.4914Z" fill="#5469B1"/>
<path d="M17.4673 24.0002C17.343 24.0002 17.2188 23.9808 17.103 23.9391L0.39425 18.0305C0.149982 17.9444 0 17.7777 0 17.5999V5.29111C0 5.1161 0.141416 4.95776 0.372828 4.86886C0.60424 4.77997 0.891362 4.7772 1.12277 4.86054L17.8316 10.7691C18.0758 10.8552 18.2258 11.0219 18.2258 11.2025V23.5085C18.2258 23.6808 18.0844 23.8446 17.853 23.9308C17.7373 23.978 17.6044 24.0002 17.4673 24.0002ZM1.52131 17.3083L16.7088 22.6779V11.4914L1.52131 6.1217V17.3083Z" fill="#5469B1"/>
</g>
</svg>
