<svg width="24" height="24" viewBox="0 0 24 24" fill="none" xmlns="http://www.w3.org/2000/svg">
<path d="M12 1.15983C7.73726 1.10201 3.62993 3.84542 2.01301 7.78318C0.324126 11.6522 1.20165 16.4584 4.15592 19.4758C6.9973 22.5343 11.6788 23.6569 15.5995 22.2258C19.6629 20.8422 22.6627 16.8517 22.8258 12.5568C23.0993 8.33653 20.6163 4.12609 16.8146 2.28776C15.3259 1.54486 13.6635 1.15745 12 1.15983ZM12 2.33171C16.2104 2.25848 20.2147 5.28291 21.3018 9.35042C22.4388 13.1814 20.9008 17.6169 17.5997 19.8859C14.1707 22.4063 9.08558 22.2239 5.84742 19.4622C2.58475 16.8608 1.41688 12.0492 3.09084 8.23348C4.54172 4.70598 8.18368 2.28693 12 2.33171ZM7.08255 8.2491V15.7502H16.9175V8.24909H7.08255V8.2491ZM9.26733 9.42102H14.7319C13.764 10.0166 12.796 11.3241 11.8282 11.4668C10.9746 10.7848 10.121 10.1029 9.26731 9.42102H9.26733ZM15.7471 10.1109V14.5783H8.25301V10.1113C9.50164 11.1092 10.7502 12.1071 11.9989 13.1049C13.2484 12.107 14.4977 11.1089 15.7471 10.1109Z" fill="#B6BFDD"/>
</svg>
