<svg width="24" height="24" viewBox="0 0 24 24" fill="none" xmlns="http://www.w3.org/2000/svg">
<path d="M7.5 14C8.07633 13.9999 8.63499 14.1989 9.08145 14.5633C9.52791 14.9278 9.83473 15.4353 9.95 16H17V6H6C5.46957 6 4.96086 6.21071 4.58579 6.58579C4.21071 6.96086 4 7.46957 4 8V16H5.05C5.16527 15.4353 5.47209 14.9278 5.91855 14.5633C6.36501 14.1989 6.92367 13.9999 7.5 14ZM7.5 19C6.92367 19.0001 6.36501 18.8011 5.91855 18.4367C5.47209 18.0722 5.16527 17.5647 5.05 17H3V8C3 7.20435 3.31607 6.44129 3.87868 5.87868C4.44129 5.31607 5.20435 5 6 5H17C17.2652 5 17.5196 5.10536 17.7071 5.29289C17.8946 5.48043 18 5.73478 18 6V8H21L24 11.981V17H21.95C21.8352 17.5651 21.5286 18.0732 21.0821 18.4382C20.6356 18.8031 20.0767 19.0025 19.5 19.0025C18.9233 19.0025 18.3644 18.8031 17.9179 18.4382C17.4714 18.0732 17.1648 17.5651 17.05 17H9.95C9.83473 17.5647 9.52791 18.0722 9.08145 18.4367C8.63499 18.8011 8.07633 19.0001 7.5 19ZM7.5 15C7.10218 15 6.72064 15.158 6.43934 15.4393C6.15804 15.7206 6 16.1022 6 16.5C6 16.8978 6.15804 17.2794 6.43934 17.5607C6.72064 17.842 7.10218 18 7.5 18C7.89782 18 8.27936 17.842 8.56066 17.5607C8.84196 17.2794 9 16.8978 9 16.5C9 16.1022 8.84196 15.7206 8.56066 15.4393C8.27936 15.158 7.89782 15 7.5 15ZM19.5 14C20.0763 13.9999 20.635 14.1989 21.0815 14.5633C21.5279 14.9278 21.8347 15.4353 21.95 16H23V12.316L22.762 12H18V14.5C18.4324 14.1748 18.959 13.9993 19.5 14ZM19.5 15C19.1022 15 18.7206 15.158 18.4393 15.4393C18.158 15.7206 18 16.1022 18 16.5C18 16.8978 18.158 17.2794 18.4393 17.5607C18.7206 17.842 19.1022 18 19.5 18C19.8978 18 20.2794 17.842 20.5607 17.5607C20.842 17.2794 21 16.8978 21 16.5C21 16.1022 20.842 15.7206 20.5607 15.4393C20.2794 15.158 19.8978 15 19.5 15ZM18 9V11H22.009L20.5 9H18Z" fill="#0A288F"/>
</svg>
